# xmcd
#
# Track frame offsets:
#	150
#	21734
#	73136
#	101332
#	139400
#	188329
#	224960
#
# Disc length: 3411 seconds
#
# Revision: 0
# Processed by: cddbd v1.5.1PL2 Copyright (c) Steve Scherf et al.
# Submitted via: audiograbber 1.83.01
#
DISCID=700d5107
DTITLE=Michael Hill - Electric Storyland - Disc 2
DYEAR=2003
DGENRE=Blues
TTITLE0=Something On The Sky
TTITLE1=Bloodlines Trilogy
TTITLE2=Heat On The Highway
TTITLE3=Evil In THe Air
TTITLE4=Chocolate Cream Jam
TTITLE5=New York State Of Blues
TTITLE6=Young Folks' Blues
EXTD=
EXTT0=
EXTT1=
EXTT2=
EXTT3=
EXTT4=
EXTT5=
EXTT6=
PLAYORDER=
